<svg xmlns="http://www.w3.org/2000/svg" width="1920" height="1080" viewBox="0 0 1920 1080">
  <rect width="1920" height="1080" fill="#071B2B"/>
  <circle cx="1580" cy="215" r="320" fill="#FF8D7B" opacity=".08"/>
  <text x="130" y="140" fill="#FFB8A9" font-family="Inter, Arial, sans-serif" font-size="30" font-weight="700" letter-spacing="7">LOCAL PRESCRIPTION INTAKE</text>
  <text x="130" y="255" fill="#F7FBFC" font-family="Inter, Arial, sans-serif" font-size="76" font-weight="750">A photograph can contain</text><text x="130" y="340" fill="#F7FBFC" font-family="Inter, Arial, sans-serif" font-size="76" font-weight="750">a safety-critical connection.</text>
  <g transform="translate(130 445)" font-family="Inter, Arial, sans-serif">
    <rect width="400" height="390" rx="32" fill="#15394C" stroke="#376B7A" stroke-width="2"/>
    <rect x="77" y="42" width="246" height="306" rx="18" fill="#E8F0F2"/>
    <rect x="105" y="84" width="190" height="15" rx="7" fill="#A8C0C8"/><rect x="105" y="126" width="146" height="12" rx="6" fill="#A8C0C8"/><rect x="105" y="170" width="169" height="12" rx="6" fill="#A8C0C8"/>
    <rect x="104" y="216" width="150" height="48" rx="8" fill="#FFB8A9"/><text x="179" y="247" text-anchor="middle" fill="#612D25" font-size="22" font-weight="700">KETOROLAC</text>
    <text x="200" y="375" text-anchor="middle" fill="#70F0D8" font-size="25" font-weight="700">Local image + OCR</text>
    <path d="M452 195h150" stroke="#70F0D8" stroke-width="6"/><path d="M587 180l28 15-28 15" fill="#70F0D8"/>
    <rect x="650" width="430" height="390" rx="32" fill="#15394C" stroke="#376B7A" stroke-width="2"/><text x="695" y="76" fill="#70F0D8" font-size="24" font-weight="700" letter-spacing="3">EXTRACTED MEDICATION</text><text x="695" y="177" fill="#F7FBFC" font-size="55" font-weight="750">Ketorolac</text><text x="695" y="233" fill="#A8C0C8" font-size="28">matched against patient context</text>
    <path d="M1128 195h150" stroke="#70F0D8" stroke-width="6"/><path d="M1263 180l28 15-28 15" fill="#70F0D8"/>
    <rect x="1325" width="465" height="390" rx="32" fill="#4B2B2A" stroke="#FF8D7B" stroke-width="3"/><text x="1370" y="76" fill="#FFB8A9" font-size="24" font-weight="700" letter-spacing="3">SAFETY SIGNAL</text><text x="1370" y="172" fill="#F7FBFC" font-size="49" font-weight="750">Ketorolac +</text><text x="1370" y="228" fill="#F7FBFC" font-size="49" font-weight="750">Warfarin</text><text x="1370" y="294" fill="#FFCDC2" font-size="28">Potential bleeding-risk context</text><text x="1370" y="344" fill="#FFCDC2" font-size="22">Requires clinician review</text>
  </g>
  <text x="130" y="970" fill="#A8C0C8" font-family="Inter, Arial, sans-serif" font-size="31">MedSignal connects the document to the patient — at the moment it matters.</text>
</svg>
